<?xml version="1.0" encoding="utf-8"?>
<!-- Generator: Adobe Illustrator 25.2.1, SVG Export Plug-In . SVG Version: 6.00 Build 0)  -->
<svg version="1.1" id="Layer_1" xmlns="http://www.w3.org/2000/svg" xmlns:xlink="http://www.w3.org/1999/xlink" x="0px" y="0px"
	 viewBox="0 0 182.35 38.63" style="enable-background:new 0 0 182.35 38.63;" xml:space="preserve">
<style type="text/css">
	.st0{fill:#FFFFFF;}
</style>
<g>
	<path class="st0" d="M140.13,15.84h0.6c0.53,0,0.7-0.23,0.7-1.18V4.99c0-0.96-0.18-1.19-0.7-1.19h-0.6V3.28h3.83v11.37
		c0,0.96,0.18,1.18,0.7,1.18h0.6v0.51h-5.13V15.84z"/>
	<g>
		<path class="st0" d="M47.88,15.84h0.48c0.84,0,0.86-0.47,0.86-2.72V7.1c0-2.24-0.02-2.71-0.88-2.71h-0.46V3.87h5.4v0.51h-0.46
			c-0.86,0-0.87,0.47-0.87,2.71v2.5h4.41V7.1c0-2.24-0.02-2.71-0.88-2.71h-0.46V3.87h5.4v0.51h-0.46c-0.86,0-0.88,0.47-0.88,2.71
			v6.02c0,2.24,0.02,2.72,0.86,2.72h0.48v0.51h-5.4v-0.51h0.46c0.86,0,0.88-0.47,0.88-2.72v-2.91h-4.41v2.91
			c0,2.24,0.02,2.72,0.87,2.72h0.46v0.51h-5.4V15.84z"/>
		<path class="st0" d="M64.31,11.95c0-3.49,0.77-4.07,1.7-4.07c0.93,0,1.7,0.58,1.7,4.07c0,3.05-0.46,4.09-1.7,4.09
			C64.77,16.04,64.31,14.99,64.31,11.95 M61.68,11.95c0,2.75,1.54,4.69,4.33,4.69c2.79,0,4.33-1.94,4.33-4.69
			c0-2.72-1.54-4.67-4.33-4.67C63.23,7.27,61.68,9.22,61.68,11.95"/>
		<path class="st0" d="M74.66,10.37c0-0.99,0.05-2.49,1.4-2.49c1.29,0,1.29,1.71,1.29,2.59c0,0.87-0.14,2.17-1.3,2.17
			C74.71,12.65,74.66,11.37,74.66,10.37 M75.34,14.5c-0.89,0-1.28-0.13-1.28-0.55c0-0.38,0.24-0.7,0.82-0.7c2.28,0,5,0,5-3.05
			c0-0.9-0.41-1.53-1.23-2.24c0.3-0.11,0.51-0.18,0.78-0.18c0.44,0,0.14,0.93,1.19,0.93c0.6,0,0.89-0.47,0.89-1
			c0-0.57-0.32-1.1-0.95-1.1c-0.84-0.01-1.54,0.87-2.49,0.87c-0.4,0-1.16-0.21-2.11-0.21c-1.92,0-3.83,0.87-3.83,3.06
			c0,1.29,0.81,2.28,1.99,2.62v0.03v-0.02c-0.85,0.26-1.37,0.98-1.37,1.87c0,0.65,0.32,1.24,1.05,1.5v0.04
			c-0.9,0.09-2.05,0.72-2.05,1.79c0,1.92,2.48,2.26,3.94,2.26c2.1,0,4.89-0.8,4.89-3.35c0-2.21-1.85-2.59-3.17-2.59H75.34z
			 M76.23,16.59c1.04,0,2.74,0.04,2.74,1.45c0,1.35-1.7,1.79-2.82,1.79c-1.09,0-2.79-0.25-2.79-1.64
			C73.36,16.63,75.06,16.59,76.23,16.59"/>
		<path class="st0" d="M84.89,11.47c0-1.73,0.07-3.59,1.52-3.59c1.3,0,1.3,1.69,1.3,3.59H84.89z M90.45,11.98
			c0-2.73-1.03-4.71-3.96-4.71c-2.79,0-4.33,1.95-4.33,4.68c0,2.74,1.54,4.68,4.33,4.68c2.2,0,3.57-1.12,3.79-3.29l-0.78-0.01
			c-0.04,1.39-0.93,2.7-2.46,2.7c-2,0-2.15-1.85-2.15-3.62v-0.44H90.45z"/>
		<path class="st0" d="M91.9,13.48h0.56c0.35,1.5,1.18,2.56,2.83,2.56c0.89,0,1.75-0.53,1.75-1.44c0-1.12-0.88-1.37-2.56-1.76
			c-1.3-0.3-2.58-0.74-2.58-2.55c0-2.1,1.53-3.02,3.46-3.01c0.79,0,1.35,0.28,1.93,0.28c0.47,0,0.74-0.14,0.95-0.29h0.11v2.82h-0.56
			c-0.18-1.16-1.12-2.21-2.35-2.21c-0.86,0-1.74,0.32-1.74,1.4c0,0.89,0.46,1.02,2.49,1.5c1.56,0.35,2.75,0.84,2.75,2.88
			c0,2.12-1.73,2.98-3.57,2.97c-0.82,0-1.72-0.28-2.47-0.28c-0.35,0-0.71,0.17-0.88,0.29H91.9V13.48z"/>
		<path class="st0" d="M108.1,13.42c-0.25,2.17-1.46,3.21-3.63,3.21c-2.84,0-4.14-2.13-4.14-4.77c0-3.31,2.37-4.59,4.47-4.59
			c2.42,0,3.14,1.31,3.14,1.93c0,0.84-0.44,1.42-1.36,1.42c-0.72,0-1.17-0.51-1.17-1.21c0-0.51,0.25-0.6,0.25-0.81
			c0-0.39-0.6-0.72-1-0.72c-1.51,0-1.6,2.13-1.6,4.19c0,1.39-0.02,3.97,1.93,3.97c1.6,0,2.21-1.19,2.33-2.63L108.1,13.42z"/>
		<path class="st0" d="M109.07,15.84h0.6c0.53,0,0.7-0.23,0.7-1.19V4.98c0-0.96-0.17-1.19-0.7-1.19h-0.6V3.28h3.83v5.46h0.04
			c0.51-0.86,1.44-1.47,2.73-1.47c1.72,0,2.56,1.03,2.56,2.49v4.89c0,0.96,0.18,1.19,0.7,1.19h0.39v0.51h-4.7v-0.51H115
			c0.52,0,0.7-0.23,0.7-1.19v-4.43c0-0.86,0-1.86-1.12-1.86c-1.68,0-1.68,1.93-1.68,3.02v3.27c0,0.96,0.18,1.19,0.7,1.19h0.38v0.51
			h-4.91V15.84z"/>
		<path class="st0" d="M123.11,11.95c0-3.49,0.77-4.07,1.7-4.07c0.93,0,1.7,0.58,1.7,4.07c0,3.05-0.45,4.09-1.7,4.09
			C123.57,16.04,123.11,14.99,123.11,11.95 M120.48,11.95c0,2.75,1.54,4.69,4.33,4.69c2.79,0,4.33-1.94,4.33-4.69
			c0-2.72-1.54-4.67-4.33-4.67C122.03,7.27,120.48,9.22,120.48,11.95"/>
		<path class="st0" d="M133.18,11.95c0-3.49,0.77-4.07,1.7-4.07c0.93,0,1.7,0.58,1.7,4.07c0,3.05-0.46,4.09-1.7,4.09
			C133.64,16.04,133.18,14.99,133.18,11.95 M130.55,11.95c0,2.75,1.54,4.69,4.33,4.69c2.79,0,4.33-1.94,4.33-4.69
			c0-2.72-1.54-4.67-4.33-4.67C132.09,7.27,130.55,9.22,130.55,11.95"/>
		<g>
			<path class="st0" d="M57.01,26.78c-0.65,0-0.84,0.54-1.12,1.21l-2.14,5.18c-0.26,0.64-0.51,1.32-0.72,2h-1.17
				c-0.16-0.45-0.32-0.94-0.49-1.39l-2.33-5.84c-0.3-0.76-0.35-1.16-0.86-1.16h-0.3v-0.51h4.8v0.51h-0.6c-0.3,0-0.6,0.07-0.6,0.39
				c0,0.09,0.06,0.3,0.16,0.6l1.72,4.48h0.04l1.74-4.39c0.09-0.25,0.14-0.44,0.14-0.6c0-0.3-0.3-0.47-0.61-0.47h-0.42v-0.51h2.77
				V26.78z"/>
			<path class="st0" d="M63.05,32.67c0,1.51-0.91,1.81-1.37,1.81c-0.9,0-1.21-0.81-1.21-1.6c0-1.56,0.63-2.51,2.05-2.51
				c0.16,0,0.3,0.02,0.52,0.07V32.67z M66.58,32.64c0,0.8,0,1.73-0.56,1.73c-0.28,0-0.44-0.19-0.44-0.66v-5.24
				c0-2.05-1.92-2.48-3.59-2.48c-1.24,0-3.53,0.37-3.53,2.02c0,0.79,0.52,1.31,1.31,1.31c0.68,0,1.32-0.44,1.32-1.18
				c0-0.5-0.39-0.81-0.39-1.01c0-0.46,0.8-0.53,1.19-0.53c0.92,0,1.17,0.65,1.17,1.43v1.85c-0.26-0.02-0.51-0.02-0.77-0.02
				c-1.91,0-4.43,0.77-4.43,3.03c0,1.61,1.24,2.45,2.75,2.45c0.96,0,2.05-0.3,2.56-1.17c0.3,0.81,1.21,1.17,1.92,1.17
				c2.16,0,2.18-1.54,2.18-2.71H66.58z"/>
			<path class="st0" d="M67.87,34.55h0.59c0.53,0,0.7-0.23,0.7-1.19v-5.38c0-0.97-0.17-1.19-0.7-1.19h-0.59v-0.51h1.84
				c0.65,0,1.28-0.12,1.88-0.29v1.55h0.03c0.7-0.99,1.54-1.55,2.84-1.55c1.72,0,2.57,1.03,2.57,2.49v4.89c0,0.96,0.18,1.19,0.7,1.19
				h0.39v0.51h-4.7v-0.51h0.39c0.52,0,0.7-0.23,0.7-1.19v-4.43c0-0.86,0-1.86-1.12-1.86c-1.68,0-1.68,1.93-1.68,3.03v3.26
				c0,0.96,0.18,1.19,0.7,1.19h0.38v0.51h-4.91V34.55z"/>
			<path class="st0" d="M90.22,30.42h-4.02l2.09-5.01L90.22,30.42z M90.19,35.06h5.61v-0.51h-0.37c-0.68,0-0.96-0.7-1.18-1.26
				l-3.24-8.39c-0.32-0.8-0.58-1.61-0.81-2.48h-1.56c-0.21,0.75-0.48,1.42-0.75,2.08l-3.42,8.21c-0.58,1.39-0.91,1.84-1.8,1.84v0.51
				h3.79v-0.51h-0.48c-0.6-0.02-0.95-0.26-0.95-0.74c0-0.43,0.21-1.07,0.46-1.67l0.47-1.13h4.49l0.46,1.18
				c0.32,0.81,0.6,1.5,0.6,1.82c0,0.51-0.53,0.51-1.32,0.52V35.06z"/>
			<path class="st0" d="M95.98,34.55h0.6c0.53,0,0.7-0.23,0.7-1.19v-5.38c0-0.97-0.18-1.19-0.7-1.19h-0.6v-0.51h1.84
				c0.65,0,1.28-0.12,1.88-0.29v1.55h0.03c0.7-0.99,1.54-1.55,2.84-1.55c1.19,0,2.07,0.44,2.41,1.55c0.75-1.08,1.47-1.55,2.93-1.55
				c1.72,0,2.56,1.03,2.56,2.49v4.89c0,0.96,0.18,1.19,0.7,1.19h0.39v0.51h-4.7v-0.51h0.38c0.53,0,0.7-0.23,0.7-1.19v-4.43
				c0-0.86,0-1.86-1.12-1.86c-1.68,0-1.68,1.93-1.68,3.02v3.27c0,0.96,0.18,1.19,0.7,1.19h0.39v0.51h-4.7v-0.51h0.39
				c0.53,0,0.7-0.23,0.7-1.19v-4.43c0-0.86,0-1.86-1.12-1.86c-1.68,0-1.68,1.93-1.68,3.03v3.26c0,0.96,0.18,1.19,0.7,1.19h0.38v0.51
				h-4.91V34.55z"/>
			<path class="st0" d="M112.59,32.19h0.56c0.35,1.5,1.18,2.56,2.83,2.56c0.89,0,1.75-0.53,1.75-1.44c0-1.12-0.88-1.37-2.56-1.76
				c-1.3-0.3-2.58-0.74-2.58-2.55c0-2.1,1.53-3.02,3.46-3.01c0.79,0,1.35,0.28,1.93,0.28c0.48,0,0.74-0.14,0.95-0.29h0.1v2.82h-0.56
				c-0.17-1.16-1.12-2.21-2.35-2.21c-0.86,0-1.73,0.32-1.73,1.4c0,0.89,0.45,1.02,2.49,1.5c1.56,0.35,2.75,0.84,2.75,2.88
				c0,2.12-1.73,2.98-3.57,2.97c-0.82,0-1.72-0.28-2.47-0.28c-0.35,0-0.7,0.17-0.88,0.29h-0.11V32.19z"/>
			<path class="st0" d="M126.31,26.78h-1.83v5.66c0,1.05,0,1.83,0.81,1.83c0.66,0,0.77-0.65,0.79-1.26v-0.56h0.66v0.38
				c0,1.75-0.69,2.52-2.28,2.52c-1.81,0-2.5-1.11-2.5-2.29v-6.27h-1.23v-0.51c1.74-0.11,2.85-1.79,3.23-3.37h0.53v3.37h1.83V26.78z"
				/>
			<path class="st0" d="M130.58,30.19c0-1.73,0.07-3.59,1.52-3.59c1.3,0,1.3,1.69,1.3,3.59H130.58z M136.14,30.7
				c0-2.73-1.04-4.71-3.97-4.71c-2.79,0-4.33,1.95-4.33,4.68c0,2.74,1.55,4.68,4.33,4.68c2.2,0,3.57-1.12,3.8-3.29l-0.78-0.01
				c-0.04,1.39-0.93,2.7-2.46,2.7c-2,0-2.15-1.85-2.15-3.62V30.7H136.14z"/>
			<path class="st0" d="M141.05,33.36c0,0.96,0.17,1.19,0.7,1.19h0.81v0.51h-5.34v-0.51h0.6c0.53,0,0.7-0.23,0.7-1.19v-5.38
				c0-0.97-0.17-1.19-0.7-1.19h-0.6v-0.51h1.84c0.65,0,1.28-0.12,1.88-0.29v1.99h0.07c0.38-0.9,1.18-1.86,2.35-1.86
				c0.82,0,1.75,0.35,1.75,1.48c0,0.82-0.54,1.26-1.47,1.26c-0.42,0-1.16-0.21-1.16-1.13c0-0.33,0-0.42-0.21-0.42
				c-0.49,0-1.23,1.14-1.23,3.02V33.36z"/>
			<path class="st0" d="M148.77,30.42c0-0.85,0-3.56,1.33-3.56c1.66,0,1.8,2.43,1.8,3.63c0,1.16-0.02,4-1.78,4
				C148.77,34.48,148.77,31.28,148.77,30.42 M152.05,35.06h3.69v-0.51h-0.56c-0.46,0-0.7-0.15-0.7-1.21V22h-3.77v0.51h0.54
				c0.66,0,0.7,0.31,0.7,1.17v3.74h-0.03c-0.54-0.98-1.36-1.44-2.48-1.44c-2.56,0-3.4,2.45-3.4,4.7c0,2.14,0.91,4.66,3.37,4.66
				c1.22,0,2.22-0.43,2.62-1.55h0.03V35.06z"/>
			<path class="st0" d="M161.94,32.67c0,1.51-0.91,1.81-1.36,1.81c-0.89,0-1.21-0.81-1.21-1.6c0-1.56,0.63-2.51,2.05-2.51
				c0.16,0,0.3,0.02,0.52,0.07V32.67z M165.47,32.64c0,0.8,0,1.73-0.56,1.73c-0.28,0-0.44-0.19-0.44-0.66v-5.24
				c0-2.05-1.92-2.48-3.6-2.48c-1.24,0-3.53,0.37-3.53,2.02c0,0.79,0.53,1.31,1.32,1.31c0.68,0,1.31-0.44,1.31-1.18
				c0-0.5-0.39-0.81-0.39-1.01c0-0.46,0.8-0.53,1.19-0.53c0.93,0,1.17,0.65,1.17,1.43v1.85c-0.26-0.02-0.5-0.02-0.77-0.02
				c-1.91,0-4.44,0.77-4.44,3.03c0,1.61,1.25,2.45,2.75,2.45c0.97,0,2.05-0.3,2.56-1.17c0.3,0.81,1.21,1.17,1.91,1.17
				c2.16,0,2.17-1.54,2.17-2.71H165.47z"/>
			<path class="st0" d="M166.77,34.55h0.59c0.53,0,0.7-0.23,0.7-1.19v-5.38c0-0.97-0.17-1.19-0.7-1.19h-0.59v-0.51h1.84
				c0.65,0,1.28-0.12,1.88-0.29v1.55h0.04c0.7-0.99,1.54-1.55,2.83-1.55c1.2,0,2.08,0.44,2.41,1.55c0.75-1.08,1.47-1.55,2.93-1.55
				c1.72,0,2.57,1.03,2.57,2.49v4.89c0,0.96,0.18,1.19,0.7,1.19h0.39v0.51h-4.71v-0.51h0.39c0.53,0,0.7-0.23,0.7-1.19v-4.43
				c0-0.86,0-1.86-1.12-1.86c-1.68,0-1.68,1.93-1.68,3.02v3.27c0,0.96,0.18,1.19,0.7,1.19h0.38v0.51h-4.7v-0.51h0.38
				c0.53,0,0.7-0.23,0.7-1.19v-4.43c0-0.86,0-1.86-1.12-1.86c-1.68,0-1.68,1.93-1.68,3.03v3.26c0,0.96,0.17,1.19,0.7,1.19h0.38v0.51
				h-4.91V34.55z"/>
		</g>
	</g>
</g>
<g>
	<g>
		<path class="st0" d="M20.7,9.22c5.42,0,10.48,1.46,14.83,4l4.65-7.95C34.46,1.91,27.81,0,20.7,0C13.6,0,6.95,1.91,1.23,5.27
			l4.65,7.95C10.24,10.67,15.3,9.22,20.7,9.22z"/>
	</g>
	<g>
		<path class="st0" d="M25,13.59c-1.89-0.02-7.62-0.13-14.98,3.27c-0.94,0.44-1.6,0.8-1.76,0.57c-0.32-0.5,2.02-2.49,4.54-3.95
			c0.91-0.54,1.43-1.01,1.22-1.41c-0.3-0.59-2.1-0.71-7.12,1.86c-2.57,1.44-4.9,3.27-6.89,5.41l0.82,0.77
			c0.81-0.86,1.68-1.65,2.56-2.42c0.59-0.51,3.34-2.57,3.58-1.95c0.09,0.25-0.08,0.61-1.06,1.94c-0.85,1.17-1.41,2.27-1,2.61
			c0.4,0.34,0.88,0.15,2.03-0.48c0.85-0.47,3.54-1.9,7.79-3.17c4.25-1.27,5.28-0.78,5.38-0.48c0.13,0.42-1.83,1.11-2.98,1.68
			c-0.97,0.49-4.37,2.49-6.22,3.98c0,0,1.79,3.07,1.8,3.07c1.91-1.12,9.17-2.96,9.95-1.63c0.85,1.46-6.88,6.89-6.88,6.89l4.93,8.47
			c0,0,11.21-12.88,9.42-15.7c-1.8-2.81-8.55-2.29-11.21-2.04c-0.73,0.06-1.59,0.22-1.77-0.14c-0.2-0.4,0.03-2.01,9.03-4.14
			c2-0.47,2.78-0.72,2.67-1.6C28.74,14.26,26.89,13.6,25,13.59z"/>
	</g>
</g>
</svg>
