<?xml version="1.0" encoding="utf-8"?>
<!-- Generator: Adobe Illustrator 25.2.1, SVG Export Plug-In . SVG Version: 6.00 Build 0)  -->
<svg version="1.1" id="Layer_1" xmlns="http://www.w3.org/2000/svg" xmlns:xlink="http://www.w3.org/1999/xlink" x="0px" y="0px"
	 viewBox="0 0 157.6 16.82" style="enable-background:new 0 0 157.6 16.82;" xml:space="preserve">
<style type="text/css">
	.st0{fill:#FFFFFF;}
</style>
<g>
	<path class="st0" d="M8.96,3.48h-0.6C8.16,1.84,7.28,0.51,5.55,0.51c-3.05,0-3.69,3.55-3.69,5.93c0,3.96,1.4,6.07,3.76,6.07
		c1.63,0,2.82-1.37,2.89-2.97h0.61v3.38H8.61c-0.05-0.19-0.17-0.4-0.4-0.4c-0.46,0-1.38,0.51-2.4,0.51C1.91,13.02,0,10.15,0,6.69
		C0,3.34,1.71,0,5.48,0c0.66,0,1.07,0.1,1.4,0.25c0.35,0.14,0.61,0.26,0.98,0.26c0.23,0,0.49-0.07,0.49-0.38h0.61V3.48z"/>
	<path class="st0" d="M10.73,12.23h0.42c0.82,0,1-0.28,1-1.09V5.9c0-0.79-0.12-1.31-1-1.31h-0.42V4.08h0.37
		c0.47,0,1.77-0.09,2.38-0.28v2.26h0.04c0.58-1.05,1.26-2.19,2.61-2.19c0.75,0,1.63,0.35,1.63,1.23c0,0.63-0.37,1.02-1,1.02
		c-0.51,0-0.96-0.35-0.96-0.89c0-0.11,0.04-0.25,0.09-0.37h-0.33c-1.16,0-1.96,1.94-1.96,3.31v2.96c0,1.12,0.49,1.12,1.49,1.12h0.38
		v0.51h-4.73V12.23z"/>
	<path class="st0" d="M20.67,8.44c0,1.52,0.07,4.08,2.17,4.08c1.52,0,2.49-1.26,2.57-2.76h0.72c-0.12,2.05-1.4,3.27-3.45,3.27
		c-2.61,0-3.71-1.98-3.71-4.41c0-2.42,0.96-4.81,3.71-4.81c2.49,0,3.57,2.47,3.57,4.64H20.67z M24.55,7.93
		c0-1.28-0.1-3.62-1.89-3.62c-1.79,0-2,2.29-2,3.62H24.55z"/>
	<path class="st0" d="M36.26,11.39c0,0.95-0.67,1.63-1.61,1.63c-0.75,0-1.45-0.33-1.54-1.16h-0.04c-0.49,0.79-1.31,1.16-2.26,1.16
		c-1.56,0-2.87-0.72-2.87-2.33c0-2.69,2.7-3.13,5.09-3.13V5.9c0-0.88-0.58-1.59-1.38-1.59c-0.6,0-1.26,0.09-1.4,0.75
		c0.21,0.28,0.3,0.47,0.3,0.75c0,0.49-0.45,0.86-0.93,0.86c-0.67,0-1.03-0.52-1.03-1.15c0-1.33,1.89-1.72,3.05-1.72
		c1.77,0,2.83,0.77,2.83,2.24v5.06c0,0.49,0.02,1.21,0.54,1.21c0.51,0,0.73-0.56,0.73-1.21v-0.65h0.51V11.39z M31.29,12.41
		c1.19,0,1.75-1.09,1.75-2.15V8.07c-2,0-3.39,0.51-3.39,2.57C29.64,11.67,30.22,12.41,31.29,12.41z"/>
	<path class="st0" d="M40.16,1.31v2.77h2.13v0.61h-2.13v6.67c0,0.6,0.26,0.95,0.72,0.95c0.67,0,0.86-0.49,0.86-1.09V10.4h0.72v0.54
		c0,1.35-0.7,2.08-1.8,2.08c-1.7,0-1.93-0.95-1.93-2.21V4.69h-1.54V4.08c1.51-0.03,2.21-1.26,2.4-2.77H40.16z"/>
	<path class="st0" d="M44.55,5.46c0-0.79-0.21-0.88-0.98-0.88h-0.44V4.08h0.63c0.89,0,1.45-0.11,2.31-0.28
		c-0.05,0.58-0.09,1.16-0.09,1.73v5.58c0,0.86,0.19,1.12,0.95,1.12h0.56v0.51h-4.36v-0.51h0.59c0.72,0,0.82-0.35,0.82-1.02V5.46z
		 M45.2,0.25c0.51,0,0.98,0.47,0.98,0.98c0,0.56-0.51,0.98-0.98,0.98c-0.49,0-0.98-0.42-0.98-0.98C44.22,0.68,44.66,0.25,45.2,0.25z
		"/>
	<path class="st0" d="M48.32,4.08h0.47c0.84,0,1.58-0.07,2.27-0.28v1.63h0.04c0.72-1.09,1.68-1.63,2.7-1.63
		c2.49,0,2.85,1.24,2.85,2.64v4.43c0,1.37,0.16,1.37,0.82,1.37h0.59v0.51h-4.27v-0.51h0.6c0.67,0,0.82,0,0.82-1.37V6.93
		c0-1.43-0.35-2.42-1.68-2.42c-1.58,0-2.36,1.33-2.36,2.8v3.55c0,1.37,0.16,1.37,0.82,1.37h0.6v0.51h-4.27v-0.51h0.59
		c0.67,0,0.82,0,0.82-1.37V5.58c0-0.82-0.25-1-1.01-1h-0.4V4.08z"/>
	<path class="st0" d="M64.35,11.48c1.5,0,2.85,0.58,2.85,2.47c0,2.05-2.45,2.87-4.16,2.87c-1.51,0-3.85-0.46-3.85-2.36
		c0-1.1,1.05-1.8,1.98-1.96v-0.04c-0.7-0.12-1.1-0.7-1.1-1.36c0-0.82,0.54-1.37,1.37-1.54V9.52c-1.08-0.39-1.91-1.4-1.91-2.57
		c0-2.03,1.68-3.15,3.52-3.15c0.47,0,0.75,0.05,1,0.11c0.25,0.05,0.46,0.12,0.74,0.12c0.7,0,1.26-0.81,2.08-0.81
		c0.54,0,0.91,0.39,0.91,0.93c0,0.51-0.35,0.93-0.88,0.93c-0.72,0-0.61-0.84-1-0.84c-0.16,0-0.54,0.14-0.8,0.21
		c0.89,0.65,1.31,1.33,1.31,2.5c0,2.31-1.86,3.05-3.85,3.05c-1,0-1.61,0.07-1.61,0.77c0,0.65,0.67,0.72,1.5,0.72H64.35z M63.3,16.31
		c1.15,0,2.57-0.54,2.57-1.91c0-1.42-0.93-1.66-2.36-1.66c-1.4,0-2.89,0.02-2.89,1.75C60.62,15.98,62.14,16.31,63.3,16.31z
		 M64.8,6.97c0-1.17-0.28-2.66-1.71-2.66c-1.59,0-1.98,1.23-1.98,2.64c0,1.28,0.4,2.54,1.91,2.54C64.47,9.49,64.8,8.17,64.8,6.97z"
		/>
	<path class="st0" d="M73.53,0.28h10.41v2.96h-0.61c-0.17-1.54-0.88-2.45-2.92-2.45h-0.88v9.5c0,1.65,0.04,1.94,0.82,1.94h0.79v0.51
		h-4.81v-0.51h0.79c0.79,0,0.82-0.3,0.82-1.94v-9.5h-0.88c-2.05,0-2.75,0.91-2.92,2.45h-0.61V0.28z"/>
	<path class="st0" d="M83.88,8.42c0-2.4,1.35-4.62,3.88-4.62c2.54,0,3.89,2.22,3.89,4.62c0,2.38-1.35,4.6-3.89,4.6
		C85.22,13.02,83.88,10.8,83.88,8.42z M89.95,8.42c0-1.59-0.02-4.11-2.19-4.11c-2.17,0-2.19,2.52-2.19,4.11
		c0,1.58,0.02,4.09,2.19,4.09C89.93,12.51,89.95,9.99,89.95,8.42z"/>
	<path class="st0" d="M93.13,12.23h0.59c0.67,0,0.82,0,0.82-1.37V5.58c0-0.82-0.24-1-1.01-1h-0.4V4.08h0.47
		c0.84,0,1.58-0.07,2.27-0.28v1.63h0.04c0.72-1.09,1.68-1.63,2.7-1.63c1.08,0,2.05,0.28,2.47,1.61c0.4-0.77,1.42-1.61,2.73-1.61
		c2.49,0,2.85,1.24,2.85,2.64v4.43c0,1.37,0.16,1.37,0.82,1.37h0.59v0.51h-4.27v-0.51h0.59c0.67,0,0.82,0,0.82-1.37V6.93
		c0-1.43-0.35-2.42-1.68-2.42c-1.42,0-2.22,0.84-2.22,2.42v3.94c0,1.37,0.16,1.37,0.82,1.37h0.6v0.51h-4.27v-0.51h0.59
		c0.67,0,0.82,0,0.82-1.37V6.93c0-1.43-0.35-2.42-1.54-2.42c-1.58,0-2.36,1.33-2.36,2.8v3.55c0,1.37,0.16,1.37,0.82,1.37h0.6v0.51
		h-4.27V12.23z"/>
	<path class="st0" d="M109.48,8.42c0-2.4,1.35-4.62,3.88-4.62c2.54,0,3.89,2.22,3.89,4.62c0,2.38-1.35,4.6-3.89,4.6
		C110.83,13.02,109.48,10.8,109.48,8.42z M115.55,8.42c0-1.59-0.02-4.11-2.19-4.11c-2.17,0-2.19,2.52-2.19,4.11
		c0,1.58,0.02,4.09,2.19,4.09C115.54,12.51,115.55,9.99,115.55,8.42z"/>
	<path class="st0" d="M118.74,12.23h0.42c0.82,0,1-0.28,1-1.09V5.9c0-0.79-0.12-1.31-1-1.31h-0.42V4.08h0.37
		c0.47,0,1.77-0.09,2.38-0.28v2.26h0.04c0.58-1.05,1.26-2.19,2.61-2.19c0.75,0,1.63,0.35,1.63,1.23c0,0.63-0.37,1.02-1,1.02
		c-0.51,0-0.96-0.35-0.96-0.89c0-0.11,0.04-0.25,0.09-0.37h-0.33c-1.16,0-1.96,1.94-1.96,3.31v2.96c0,1.12,0.49,1.12,1.49,1.12h0.39
		v0.51h-4.73V12.23z"/>
	<path class="st0" d="M126.51,12.23h0.42c0.82,0,1-0.28,1-1.09V5.9c0-0.79-0.12-1.31-1-1.31h-0.42V4.08h0.37
		c0.47,0,1.77-0.09,2.38-0.28v2.26h0.04c0.58-1.05,1.26-2.19,2.61-2.19c0.75,0,1.63,0.35,1.63,1.23c0,0.63-0.37,1.02-1,1.02
		c-0.51,0-0.96-0.35-0.96-0.89c0-0.11,0.04-0.25,0.09-0.37h-0.33c-1.16,0-1.96,1.94-1.96,3.31v2.96c0,1.12,0.49,1.12,1.49,1.12h0.39
		v0.51h-4.73V12.23z"/>
	<path class="st0" d="M134.75,8.42c0-2.4,1.35-4.62,3.88-4.62c2.54,0,3.89,2.22,3.89,4.62c0,2.38-1.35,4.6-3.89,4.6
		C136.1,13.02,134.75,10.8,134.75,8.42z M140.82,8.42c0-1.59-0.02-4.11-2.19-4.11c-2.17,0-2.19,2.52-2.19,4.11
		c0,1.58,0.02,4.09,2.19,4.09C140.8,12.51,140.82,9.99,140.82,8.42z"/>
	<path class="st0" d="M144.9,5.64c-0.21-0.59-0.39-1.05-0.95-1.05h-0.3V4.08h3.92v0.51h-0.61c-0.32,0-0.68,0.02-0.68,0.4
		c0,0.18,0.12,0.58,0.26,0.96l1.73,4.87h0.04l2.01-5.53l-0.14-0.35c-0.14-0.35-0.42-0.35-0.75-0.35h-0.3V4.08h3.92v0.51h-0.3
		c-0.49,0-0.89,0-0.89,0.35c0,0.12,0.02,0.42,0.17,0.82l1.86,5.06h0.03l1.84-5.06c0.11-0.3,0.16-0.52,0.16-0.77
		c0-0.38-0.35-0.4-0.82-0.4h-0.3V4.08h2.8v0.51h-0.35c-0.37,0-0.63,0.81-0.77,1.19l-2.68,7.14h-0.65l-2.49-6.74l-2.49,6.74h-0.68
		L144.9,5.64z"/>
</g>
</svg>
